<svg width="96" height="96" viewBox="0 0 96 96" fill="none" xmlns="http://www.w3.org/2000/svg">
<g id="logo-spiderman">
<path id="Vector 33" d="M50.703 44.1559L50.4431 44.6386C52.5223 45.797 55.5173 48.3391 56.7549 49.4653C56.9035 53.2376 56.6188 56.5569 56.4579 57.745C54.4084 62.7946 49.7624 65.7401 47.6955 66.5817C43.6559 65.0668 40.0965 60.0594 38.8218 57.745C38.5545 52.7847 38.7104 50.1089 38.8218 49.3911C40.5446 47.6386 43.6485 45.4926 44.9851 44.6386L44.6881 44.1559C42.0446 45.5817 35.5173 49.8738 32.5842 51.8416C33.0891 68.9802 35.4802 74.2673 37.5965 78.9084C30.5049 67.6584 30.1337 58.8589 29.5396 50.8762C31.7673 49.0941 40.4183 45.2574 44.4282 43.5619L44.0941 42.7822C39.1931 43.7921 30.0965 47.1881 26.1609 48.7599C26.8738 67.3243 33.0668 77.7203 39.0446 86C34.2178 80.3193 30.6163 76.7178 26.2723 68.3639C23.8436 62.8378 22.6708 55.6658 21 46.7178C26.8515 44.4604 38.3144 42.6337 43.3144 42.0025L43.0916 41.4084C36.2896 40.755 28.9703 41.6807 26.1609 42.2252C25.4926 34.1312 26.2723 30.1213 30.1708 24.6262C27.7054 30.0322 28.2277 36.6807 28.797 39.3292C32.0941 39.0619 39.7005 39.6386 43.0916 39.9604L43.3144 39.4777C39.3639 36.6856 35.5792 35.3936 34.1807 35.0965C32.8441 22.3985 34.9604 19.651 39.6386 11.0371C35.6584 20.1559 36.3465 29.6881 37.1881 33.3144L44.3168 38.3267L44.6881 37.5842L42.9802 35.5421C43.604 34.1757 45.3193 33.1163 46.099 32.7574C44.198 35.1931 45.4307 36.2475 46.2846 36.4703H49.2178C51.2079 35.698 50.1708 33.6733 49.4035 32.7574C51.0074 33.3812 52.2252 34.8738 52.6336 35.5421L50.3688 37.8812L50.9257 38.6609L58.3143 33.2772C60.2153 23.802 57.2747 14.75 55.4554 11C63.0668 21.6559 61.8416 29.8985 61.1361 35.0965C58.6708 35.5421 53.698 38.2525 51.5198 39.552L52.0025 40.1832C54.9431 39.3812 62.9307 39.2302 66.5569 39.255C67.9827 34.0569 66.1361 27.3366 65.146 24.6262C69.6312 29.4975 69.8366 38.3144 69.2673 42.1139C64.2772 41.0743 55.6039 41.2104 51.8911 41.4084L51.594 42.0025C61.5817 43.0421 68.9703 44.9728 74.3911 46.7178C72.0891 60.6782 70.2698 66.5446 67.5223 71.6312C61.5223 80.9876 57.4232 84.8119 56.2723 86C63.3416 77.4753 65.8371 68.5866 66.7426 65.1337C68.495 58.4505 69.1559 51.4332 69.2673 48.7599C64.1287 46.5025 55.1955 43.8342 51.3713 42.7822L51 43.5619C56.1683 45.5223 63.1534 49.3045 66 50.9505C65.4653 58.0495 64.3663 63.3639 63.8836 65.1337C62.4876 71.3713 59.1435 76.9158 57.646 78.9084C60.2599 73.8589 61.5322 67.3243 61.8416 64.6881C62.5247 59.401 62.745 53.9208 62.7698 51.8416C59.4431 49.3762 53.3391 45.6906 50.703 44.1559Z" fill="#EDF1F7" stroke="#EDF1F7" stroke-width="0.5" stroke-linecap="round" stroke-linejoin="round"/>
<path id="Vector 34" d="M43.7441 46.5821L43.7596 46.5693C43.2398 47.349 42.0888 49.057 41.5319 49.9109C41.4428 51.9307 41.6433 53.3639 41.7546 53.8837C42.4081 57.7111 45.9873 60.1072 47.7324 60.8268C51.6309 59.1931 53.5244 55.2946 53.7472 53.8837C53.9912 52.3385 54.0319 50.5297 53.97 49.7995C53.3165 48.6411 52.2373 47.1634 51.7794 46.5693C52.7002 47.2822 54.3908 49.0198 55.121 49.7995C55.121 52.2055 54.8239 55.1584 54.7126 56.3342C53.4056 59.9877 49.4403 62.8317 47.7324 63.7228C44.4056 62.2079 41.6061 58.1659 40.6779 56.3342C40.47 54.7302 40.3561 51.198 40.3438 49.651C41.17 48.7068 42.9563 47.2324 43.7441 46.5821Z" fill="#E5E9EF"/>
</g>
</svg>
